{
  "accessors": [
    {
      "bufferView": 3,
      "componentType": 5126,
      "count": 1562,
      "max": [
        0.24283985793590546,
        0.4847017824649811,
        0.23476369678974152
      ],
      "min": [
        -0.22885391116142273,
        0.003744864370673895,
        -0.23503753542900085
      ],
      "type": "VEC3"
    },
    {
      "bufferView": 3,
      "byteOffset": 18744,
      "componentType": 5126,
      "count": 1562,
      "max": [
        0.9996407628059387,
        0.9999397397041321,
        0.999866247177124
      ],
      "min": [
        -0.999751627445221,
        -1.0,
        -0.9998652935028076
      ],
      "type": "VEC3"
    },
    {
      "bufferView": 2,
      "componentType": 5126,
      "count": 1562,
      "max": [
        0.8638614416122437,
        0.23473824560642242
      ],
      "min": [
        0.8635023832321167,
        0.22292682528495789
      ],
      "type": "VEC2"
    },
    {
      "bufferView": 1,
      "componentType": 5125,
      "count": 8832,
      "type": "SCALAR"
    },
    {
      "bufferView": 3,
      "byteOffset": 37488,
      "componentType": 5126,
      "count": 507,
      "max": [
        0.15182989835739136,
        0.30778199434280396,
        -0.17359691858291626
      ],
      "min": [
        -0.13783326745033264,
        0.17687572538852692,
        -0.22874267399311066
      ],
      "type": "VEC3"
    },
    {
      "bufferView": 3,
      "byteOffset": 43572,
      "componentType": 5126,
      "count": 507,
      "max": [
        0.9935283660888672,
        0.9962303638458252,
        0.9493014812469482
      ],
      "min": [
        -0.9598587155342102,
        -0.9269220232963562,
        -0.9952096939086914
      ],
      "type": "VEC3"
    },
    {
      "bufferView": 2,
      "byteOffset": 12496,
      "componentType": 5126,
      "count": 507,
      "max": [
        0.7915970087051392,
        0.9446514248847961
      ],
      "min": [
        0.18030130863189697,
        0.06636476516723633
      ],
      "type": "VEC2"
    },
    {
      "bufferView": 1,
      "byteOffset": 35328,
      "componentType": 5125,
      "count": 2700,
      "type": "SCALAR"
    },
    {
      "bufferView": 3,
      "byteOffset": 49656,
      "componentType": 5126,
      "count": 2034,
      "max": [
        0.2478380650281906,
        0.4897014796733856,
        0.2397630214691162
      ],
      "min": [
        -0.23385266959667206,
        -0.0012551350519061089,
        -0.24003686010837555
      ],
      "type": "VEC3"
    },
    {
      "bufferView": 3,
      "byteOffset": 74064,
      "componentType": 5126,
      "count": 2034,
      "max": [
        0.9997515678405762,
        1.0,
        0.9998657703399658
      ],
      "min": [
        -0.9996405839920044,
        -0.9999387264251709,
        -0.999866783618927
      ],
      "type": "VEC3"
    },
    {
      "bufferView": 2,
      "byteOffset": 16552,
      "componentType": 5126,
      "count": 2034,
      "max": [
        0.8638614416122437,
        0.9446514248847961
      ],
      "min": [
        0.18030130863189697,
        0.06636476516723633
      ],
      "type": "VEC2"
    },
    {
      "bufferView": 1,
      "byteOffset": 46128,
      "componentType": 5125,
      "count": 11316,
      "type": "SCALAR"
    },
    {
      "bufferView": 5,
      "componentType": 5126,
      "count": 3,
      "max": [
        1.0,
        0.0,
        2.384185791015625e-07,
        0.0,
        0.0,
        1.0000001192092896,
        0.0,
        0.0,
        0.0,
        0.0,
        1.0,
        0.0,
        0.0,
        0.0,
        0.0,
        1.0
      ],
      "min": [
        1.0,
        0.0,
        0.0,
        0.0,
        0.0,
        1.0,
        0.0,
        0.0,
        -2.384185791015625e-07,
        0.0,
        1.0,
        0.0,
        -0.006390342488884926,
        -0.04414748400449753,
        -0.00010652931814547628,
        1.0
      ],
      "type": "MAT4"
    },
    {
      "bufferView": 0,
      "componentType": 5123,
      "count": 1562,
      "type": "VEC4"
    },
    {
      "bufferView": 4,
      "componentType": 5126,
      "count": 1562,
      "max": [
        1.0,
        0.4998290538787842,
        0.0,
        0.0
      ],
      "min": [
        0.5001709461212158,
        0.0,
        0.0,
        0.0
      ],
      "type": "VEC4"
    },
    {
      "bufferView": 0,
      "byteOffset": 12496,
      "componentType": 5123,
      "count": 507,
      "type": "VEC4"
    },
    {
      "bufferView": 4,
      "byteOffset": 24992,
      "componentType": 5126,
      "count": 507,
      "max": [
        1.0,
        0.0,
        0.0,
        0.0
      ],
      "min": [
        1.0,
        0.0,
        0.0,
        0.0
      ],
      "type": "VEC4"
    },
    {
      "bufferView": 0,
      "byteOffset": 16552,
      "componentType": 5123,
      "count": 2034,
      "type": "VEC4"
    },
    {
      "bufferView": 4,
      "byteOffset": 33104,
      "componentType": 5126,
      "count": 2034,
      "max": [
        1.0,
        0.4998290538787842,
        0.0,
        0.0
      ],
      "min": [
        0.5001709461212158,
        0.0,
        0.0,
        0.0
      ],
      "type": "VEC4"
    },
    {
      "bufferView": 6,
      "componentType": 5126,
      "count": 100,
      "max": [
        4.166666507720947
      ],
      "min": [
        0.0416666679084301
      ],
      "type": "SCALAR"
    },
    {
      "bufferView": 7,
      "componentType": 5126,
      "count": 100,
      "max": [
        0.03999999910593033,
        0.050371427088975906,
        1.0968528307842007e-08
      ],
      "min": [
        -0.03999999910593033,
        0.010371426120400429,
        1.0968522090593069e-08
      ],
      "type": "VEC3"
    },
    {
      "bufferView": 6,
      "byteOffset": 400,
      "componentType": 5126,
      "count": 100,
      "max": [
        4.166666507720947
      ],
      "min": [
        0.0416666679084301
      ],
      "type": "SCALAR"
    },
    {
      "bufferView": 8,
      "componentType": 5126,
      "count": 100,
      "max": [
        0.0,
        -2.842170943040401e-14,
        0.0,
        1.0
      ],
      "min": [
        0.0,
        -2.879567786474857e-14,
        0.0,
        1.0
      ],
      "type": "VEC4"
    },
    {
      "bufferView": 6,
      "byteOffset": 800,
      "componentType": 5126,
      "count": 100,
      "max": [
        4.166666507720947
      ],
      "min": [
        0.0416666679084301
      ],
      "type": "SCALAR"
    },
    {
      "bufferView": 7,
      "byteOffset": 1200,
      "componentType": 5126,
      "count": 100,
      "max": [
        1.0,
        1.0199998617172241,
        1.0
      ],
      "min": [
        0.949999988079071,
        0.800000011920929,
        0.949999988079071
      ],
      "type": "VEC3"
    },
    {
      "bufferView": 6,
      "byteOffset": 1200,
      "componentType": 5126,
      "count": 30,
      "max": [
        1.375
      ],
      "min": [
        0.0416666679084301
      ],
      "type": "SCALAR"
    },
    {
      "bufferView": 7,
      "byteOffset": 2400,
      "componentType": 5126,
      "count": 30,
      "max": [
        0.0,
        0.9241398572921753,
        0.0
      ],
      "min": [
        0.0,
        -0.0007633638451807201,
        0.0
      ],
      "type": "VEC3"
    },
    {
      "bufferView": 6,
      "byteOffset": 1320,
      "componentType": 5126,
      "count": 22,
      "max": [
        1.375
      ],
      "min": [
        0.0416666679084301
      ],
      "type": "SCALAR"
    },
    {
      "bufferView": 7,
      "byteOffset": 2760,
      "componentType": 5126,
      "count": 22,
      "max": [
        1.0,
        1.0805373191833496,
        1.0
      ],
      "min": [
        1.0,
        0.7701960206031799,
        1.0
      ],
      "type": "VEC3"
    },
    {
      "bufferView": 6,
      "byteOffset": 1408,
      "componentType": 5126,
      "count": 33,
      "max": [
        1.375
      ],
      "min": [
        0.0416666679084301
      ],
      "type": "SCALAR"
    },
    {
      "bufferView": 7,
      "byteOffset": 3024,
      "componentType": 5126,
      "count": 33,
      "max": [
        1.5553118392320976e-16,
        0.15035074949264526,
        0.0
      ],
      "min": [
        0.0,
        -0.010951504111289978,
        -0.002346094697713852
      ],
      "type": "VEC3"
    },
    {
      "bufferView": 6,
      "byteOffset": 1540,
      "componentType": 5126,
      "count": 33,
      "max": [
        1.375
      ],
      "min": [
        0.0416666679084301
      ],
      "type": "SCALAR"
    },
    {
      "bufferView": 8,
      "byteOffset": 1600,
      "componentType": 5126,
      "count": 33,
      "max": [
        0.002479953458532691,
        -1.4210768317841384e-14,
        8.155463503246938e-17,
        0.9999969601631165
      ],
      "min": [
        0.0024799529928714037,
        -3.538465229374968e-14,
        2.4917085491318498e-17,
        0.9999969601631165
      ],
      "type": "VEC4"
    },
    {
      "bufferView": 6,
      "byteOffset": 1672,
      "componentType": 5126,
      "count": 33,
      "max": [
        1.375
      ],
      "min": [
        0.0416666679084301
      ],
      "type": "SCALAR"
    },
    {
      "bufferView": 7,
      "byteOffset": 3420,
      "componentType": 5126,
      "count": 33,
      "max": [
        1.399999976158142,
        1.3999998569488525,
        1.399999976158142
      ],
      "min": [
        1.0,
        0.4999999403953552,
        1.0
      ],
      "type": "VEC3"
    },
    {
      "bufferView": 6,
      "byteOffset": 1804,
      "componentType": 5126,
      "count": 45,
      "max": [
        1.875
      ],
      "min": [
        0.0416666679084301
      ],
      "type": "SCALAR"
    },
    {
      "bufferView": 7,
      "byteOffset": 3816,
      "componentType": 5126,
      "count": 45,
      "max": [
        9.012035841432335e-15,
        0.0474916435778141,
        0.06838671863079071
      ],
      "min": [
        -4.691857796376708e-15,
        -0.01939266547560692,
        -0.12805521488189697
      ],
      "type": "VEC3"
    },
    {
      "bufferView": 6,
      "byteOffset": 1984,
      "componentType": 5126,
      "count": 45,
      "max": [
        1.875
      ],
      "min": [
        0.0416666679084301
      ],
      "type": "SCALAR"
    },
    {
      "bufferView": 8,
      "byteOffset": 2128,
      "componentType": 5126,
      "count": 45,
      "max": [
        0.08845420926809311,
        -2.842170943040401e-14,
        2.777188947019303e-15,
        1.0
      ],
      "min": [
        -0.17122069001197815,
        -3.5501810502882106e-14,
        -5.575671878816106e-15,
        0.9852327108383179
      ],
      "type": "VEC4"
    },
    {
      "bufferView": 6,
      "byteOffset": 2164,
      "componentType": 5126,
      "count": 45,
      "max": [
        1.875
      ],
      "min": [
        0.0416666679084301
      ],
      "type": "SCALAR"
    },
    {
      "bufferView": 7,
      "byteOffset": 4356,
      "componentType": 5126,
      "count": 45,
      "max": [
        1.1714836359024048,
        0.9999999403953552,
        1.1752097606658936
      ],
      "min": [
        1.0,
        0.6982886791229248,
        1.0
      ],
      "type": "VEC3"
    }
  ],
  "animations": [
    {
      "channels": [
        {
          "sampler": 0,
          "target": {
            "node": 11,
            "path": "translation"
          }
        },
        {
          "sampler": 1,
          "target": {
            "node": 11,
            "path": "rotation"
          }
        },
        {
          "sampler": 2,
          "target": {
            "node": 11,
            "path": "scale"
          }
        }
      ],
      "name": "Inkchar1_Idle",
      "samplers": [
        {
          "input": 19,
          "interpolation": "LINEAR",
          "output": 20
        },
        {
          "input": 21,
          "interpolation": "LINEAR",
          "output": 22
        },
        {
          "input": 23,
          "interpolation": "LINEAR",
          "output": 24
        }
      ]
    },
    {
      "channels": [
        {
          "sampler": 0,
          "target": {
            "node": 10,
            "path": "translation"
          }
        },
        {
          "sampler": 1,
          "target": {
            "node": 10,
            "path": "scale"
          }
        },
        {
          "sampler": 2,
          "target": {
            "node": 11,
            "path": "translation"
          }
        },
        {
          "sampler": 3,
          "target": {
            "node": 11,
            "path": "rotation"
          }
        },
        {
          "sampler": 4,
          "target": {
            "node": 11,
            "path": "scale"
          }
        }
      ],
      "name": "Inkchar1_Jump",
      "samplers": [
        {
          "input": 25,
          "interpolation": "LINEAR",
          "output": 26
        },
        {
          "input": 27,
          "interpolation": "LINEAR",
          "output": 28
        },
        {
          "input": 29,
          "interpolation": "LINEAR",
          "output": 30
        },
        {
          "input": 31,
          "interpolation": "LINEAR",
          "output": 32
        },
        {
          "input": 33,
          "interpolation": "LINEAR",
          "output": 34
        }
      ]
    },
    {
      "channels": [
        {
          "sampler": 0,
          "target": {
            "node": 11,
            "path": "translation"
          }
        },
        {
          "sampler": 1,
          "target": {
            "node": 11,
            "path": "rotation"
          }
        },
        {
          "sampler": 2,
          "target": {
            "node": 11,
            "path": "scale"
          }
        }
      ],
      "name": "Inkchar1_Run",
      "samplers": [
        {
          "input": 35,
          "interpolation": "LINEAR",
          "output": 36
        },
        {
          "input": 37,
          "interpolation": "LINEAR",
          "output": 38
        },
        {
          "input": 39,
          "interpolation": "LINEAR",
          "output": 40
        }
      ]
    }
  ],
  "asset": {
    "extras": {
      "author": "hugannh3 (https://sketchfab.com/hugannh3)",
      "license": "CC-BY-4.0 (http://creativecommons.org/licenses/by/4.0/)",
      "source": "https://sketchfab.com/3d-models/cute-slime-cf04b5e4d11f4fcba581dbda21134896",
      "title": "Cute Slime"
    },
    "generator": "Sketchfab-17.8.0",
    "version": "2.0"
  },
  "bufferViews": [
    {
      "buffer": 0,
      "byteLength": 32824,
      "byteStride": 8,
      "name": "shortBufferViews",
      "target": 34962
    },
    {
      "buffer": 0,
      "byteLength": 91392,
      "byteOffset": 32824,
      "name": "floatBufferViews",
      "target": 34963
    },
    {
      "buffer": 0,
      "byteLength": 32824,
      "byteOffset": 124216,
      "byteStride": 8,
      "name": "floatBufferViews",
      "target": 34962
    },
    {
      "buffer": 0,
      "byteLength": 98472,
      "byteOffset": 157040,
      "byteStride": 12,
      "name": "floatBufferViews",
      "target": 34962
    },
    {
      "buffer": 0,
      "byteLength": 65648,
      "byteOffset": 255512,
      "byteStride": 16,
      "name": "floatBufferViews",
      "target": 34962
    },
    {
      "buffer": 0,
      "byteLength": 192,
      "byteOffset": 321160,
      "name": "floatBufferViews"
    },
    {
      "buffer": 0,
      "byteLength": 2344,
      "byteOffset": 321352,
      "name": "floatBufferViews"
    },
    {
      "buffer": 0,
      "byteLength": 4896,
      "byteOffset": 323696,
      "byteStride": 12,
      "name": "floatBufferViews"
    },
    {
      "buffer": 0,
      "byteLength": 2848,
      "byteOffset": 328592,
      "byteStride": 16,
      "name": "floatBufferViews"
    }
  ],
  "buffers": [
    {
      "byteLength": 331440,
      "uri": "scene.bin"
    }
  ],
  "extensionsUsed": [
    "KHR_materials_unlit"
  ],
  "images": [
    {
      "uri": "textures/Mat_InkChar1_Color_baseColor.png"
    },
    {
      "uri": "textures/Mat_InkChar1_Eyes_baseColor.png"
    }
  ],
  "materials": [
    {
      "doubleSided": true,
      "extensions": {
        "KHR_materials_unlit": {}
      },
      "name": "Mat_InkChar1_Color",
      "pbrMetallicRoughness": {
        "baseColorTexture": {
          "index": 0
        },
        "metallicFactor": 0.0
      }
    },
    {
      "doubleSided": true,
      "extensions": {
        "KHR_materials_unlit": {}
      },
      "name": "Mat_InkChar1_Eyes",
      "pbrMetallicRoughness": {
        "baseColorTexture": {
          "index": 1
        },
        "metallicFactor": 0.0
      }
    },
    {
      "extensions": {
        "KHR_materials_unlit": {}
      },
      "name": "OLLLL",
      "pbrMetallicRoughness": {
        "baseColorFactor": [
          0.010984917049932128,
          0.0018502749620731523,
          0.018704943955272956,
          1.0
        ],
        "metallicFactor": 0.0
      }
    }
  ],
  "meshes": [
    {
      "name": "Object_0",
      "primitives": [
        {
          "attributes": {
            "JOINTS_0": 13,
            "NORMAL": 1,
            "POSITION": 0,
            "TEXCOORD_0": 2,
            "WEIGHTS_0": 14
          },
          "indices": 3,
          "material": 0,
          "mode": 4
        }
      ]
    },
    {
      "name": "Object_1",
      "primitives": [
        {
          "attributes": {
            "JOINTS_0": 15,
            "NORMAL": 5,
            "POSITION": 4,
            "TEXCOORD_0": 6,
            "WEIGHTS_0": 16
          },
          "indices": 7,
          "material": 1,
          "mode": 4
        }
      ]
    },
    {
      "name": "Object_2",
      "primitives": [
        {
          "attributes": {
            "JOINTS_0": 17,
            "NORMAL": 9,
            "POSITION": 8,
            "TEXCOORD_0": 10,
            "WEIGHTS_0": 18
          },
          "indices": 11,
          "material": 2,
          "mode": 4
        }
      ]
    }
  ],
  "nodes": [
    {
      "children": [
        1
      ],
      "matrix": [
        1.0,
        0.0,
        0.0,
        0.0,
        0.0,
        2.220446049250313e-16,
        -1.0,
        0.0,
        0.0,
        1.0,
        2.220446049250313e-16,
        0.0,
        0.0,
        0.0,
        0.0,
        1.0
      ],
      "name": "Sketchfab_model"
    },
    {
      "children": [
        2
      ],
      "name": "root"
    },
    {
      "children": [
        3
      ],
      "matrix": [
        1.0,
        0.0,
        0.0,
        0.0,
        0.0,
        2.220446049250313e-16,
        1.0,
        0.0,
        0.0,
        -1.0,
        2.220446049250313e-16,
        0.0,
        0.0,
        0.0,
        0.0,
        1.0
      ],
      "name": "GLTF_SceneRootNode"
    },
    {
      "children": [
        4
      ],
      "matrix": [
        1.0,
        0.0,
        0.0,
        0.0,
        0.0,
        1.0,
        0.0,
        0.0,
        0.0,
        0.0,
        1.0,
        0.0,
        0.006390342488884926,
        0.0037760469131171703,
        0.00010652779747033492,
        1.0
      ],
      "name": "Inkchar1_rig_3"
    },
    {
      "children": [
        5,
        7,
        8,
        9,
        6
      ],
      "name": "GLTF_created_0"
    },
    {
      "children": [
        10
      ],
      "name": "GLTF_created_0_rootJoint"
    },
    {
      "name": "InkChar_1_2"
    },
    {
      "mesh": 0,
      "name": "Object_7",
      "skin": 0
    },
    {
      "mesh": 1,
      "name": "Object_8",
      "skin": 0
    },
    {
      "mesh": 2,
      "name": "Object_9",
      "skin": 0
    },
    {
      "children": [
        11
      ],
      "name": "spine_1_1",
      "rotation": [
        0.0,
        1.1920928955078125e-07,
        0.0,
        1.0
      ],
      "translation": [
        0.0,
        6.87402490484601e-09,
        0.0
      ]
    },
    {
      "name": "spine_2_0",
      "rotation": [
        0.0,
        -2.842170943040401e-14,
        0.0,
        1.0
      ],
      "scale": [
        1.0,
        0.800000011920929,
        1.0
      ],
      "translation": [
        -6.793745846410255e-22,
        0.015469737350940704,
        1.0968525643306748e-08
      ]
    }
  ],
  "samplers": [
    {
      "magFilter": 9729,
      "minFilter": 9987,
      "wrapS": 10497,
      "wrapT": 10497
    }
  ],
  "scene": 0,
  "scenes": [
    {
      "name": "Sketchfab_Scene",
      "nodes": [
        0
      ]
    }
  ],
  "skins": [
    {
      "inverseBindMatrices": 12,
      "joints": [
        5,
        10,
        11
      ],
      "skeleton": 5
    }
  ],
  "textures": [
    {
      "sampler": 0,
      "source": 0
    },
    {
      "sampler": 0,
      "source": 1
    }
  ]
}
