{"asset":{"generator":"glTF-Transform v4.2.1","version":"2.0"},"accessors":[{"name":"Chandelier_01_Cube.035-Mesh_0_positions","type":"VEC3","componentType":5126,"count":1913,"max":[3.5627129077911377,10.005268096923828,3.5614700317382812],"min":[-3.5627129077911377,0.6722229719161987,-3.5614700317382812],"bufferView":0,"byteOffset":0},{"name":"Chandelier_01_Cube.035-Mesh_0_normals","type":"VEC3","componentType":5126,"count":1913,"bufferView":0,"byteOffset":12},{"name":"Chandelier_01_Cube.035-Mesh_0_indices","type":"SCALAR","componentType":5123,"count":3288,"bufferView":1,"byteOffset":0},{"name":"Chandelier_01_Cube.035-Mesh_1_indices","type":"SCALAR","componentType":5123,"count":792,"bufferView":1,"byteOffset":6576},{"name":"Chandelier_01_Cube.035-Mesh_2_indices","type":"SCALAR","componentType":5123,"count":672,"bufferView":1,"byteOffset":8160},{"name":"Chandelier_01_Cube.035-Mesh_1_positions","type":"VEC3","componentType":5126,"count":600,"max":[3.649174928665161,3.3673930168151855,3.648792028427124],"min":[-3.649174928665161,0.032280001789331436,-3.648792028427124],"bufferView":2,"byteOffset":0},{"name":"Chandelier_01_Cube.035-Mesh_1_normals","type":"VEC3","componentType":5126,"count":600,"bufferView":2,"byteOffset":12},{"name":"Chandelier_01_Cube.035-Mesh_2_positions","type":"VEC3","componentType":5126,"count":480,"max":[2.829387903213501,4.061237812042236,2.828144073486328],"min":[-2.829387903213501,3.3673930168151855,-2.828144073486328],"bufferView":3,"byteOffset":0},{"name":"Chandelier_01_Cube.035-Mesh_2_normals","type":"VEC3","componentType":5126,"count":480,"bufferView":3,"byteOffset":12}],"bufferViews":[{"buffer":0,"byteOffset":0,"byteLength":45912,"byteStride":24,"target":34962},{"buffer":0,"byteOffset":45912,"byteLength":9504,"target":34963},{"buffer":0,"byteOffset":55416,"byteLength":14400,"byteStride":24,"target":34962},{"buffer":0,"byteOffset":69816,"byteLength":11520,"byteStride":24,"target":34962}],"buffers":[{"name":"Chandelier_01","uri":"Chandelier.bin","byteLength":81336}],"materials":[{"name":"DD9944","pbrMetallicRoughness":{"baseColorFactor":[0.866667,0.6,0.266667,1],"roughnessFactor":0.903921569,"metallicFactor":0}},{"name":"FFFFFF","pbrMetallicRoughness":{"roughnessFactor":0.903921569,"metallicFactor":0}},{"name":"FFEB3B","pbrMetallicRoughness":{"baseColorFactor":[1,0.921569,0.231373,1],"roughnessFactor":0.903921569,"metallicFactor":0}}],"meshes":[{"name":"Chandelier_01_Cube.035-Mesh","primitives":[{"attributes":{"POSITION":0,"NORMAL":1},"mode":4,"material":0,"indices":2},{"attributes":{"POSITION":5,"NORMAL":6},"mode":4,"material":1,"indices":3},{"attributes":{"POSITION":7,"NORMAL":8},"mode":4,"material":2,"indices":4}]}],"nodes":[{"name":"Chandelier_01_Cube.035","mesh":0}],"scenes":[{"nodes":[0]}],"scene":0}